<?xml version="1.0" encoding="UTF-8" standalone="no"?> <svg xmlns="http://www.w3.org/2000/svg" viewBox="0 0 32 32"><defs><style>.cls-1{fill:#3fa9f5;}.cls-2{fill:#2e3192;}</style></defs><title>Campaign, correspondence, email, envelope, inbox, mail</title><g id="_01" data-name="01"><path class="cls-1" d="M25,29H6.5a1,1,0,0,1-1-1V15.41a1,1,0,0,1,2,0V27H25a1,1,0,0,1,0,2Z"/><circle class="cls-2" cx="5.61" cy="8.53" r="0.95"/><circle class="cls-2" cx="3.24" cy="6.61" r="0.47"/><circle class="cls-2" cx="25.73" cy="6.53" r="0.95"/><circle class="cls-2" cx="28.1" cy="4.61" r="0.47"/><path class="cls-2" d="M5,15a1,1,0,0,1-.71-.29,1,1,0,0,1,0-1.42l4-4a1,1,0,0,1,1.42,1.42l-4,4A1,1,0,0,1,5,15Z"/><path class="cls-2" d="M27,15a1,1,0,0,1-.71-.29l-4-4a1,1,0,0,1,1.42-1.42l4,4a1,1,0,0,1,0,1.42A1,1,0,0,1,27,15Z"/><path class="cls-1" d="M18,10H14a1,1,0,0,1,0-2h4a1,1,0,0,1,0,2Z"/><path class="cls-1" d="M18,14H14a1,1,0,0,1,0-2h4a1,1,0,0,1,0,2Z"/><path class="cls-1" d="M18,18H14a1,1,0,0,1,0-2h4a1,1,0,0,1,0,2Z"/><path class="cls-2" d="M23,18.27a1,1,0,0,1-1-1V6H10V17.27a1,1,0,0,1-2,0V5A1,1,0,0,1,9,4H23a1,1,0,0,1,1,1V17.27A1,1,0,0,1,23,18.27Z"/><path class="cls-2" d="M27,30H5a1,1,0,0,1-1-1V14a1,1,0,0,1,1.63-.77L16,21.71l10.37-8.48A1,1,0,0,1,28,14V29A1,1,0,0,1,27,30ZM6,28H26V16.11l-9.37,7.66a1,1,0,0,1-1.26,0L6,16.11Z"/></g></svg>